<?xml version="1.0" encoding="utf-8"?>
<!-- Generator: Adobe Illustrator 27.0.0, SVG Export Plug-In . SVG Version: 6.00 Build 0)  -->
<svg id="图层_1" style="enable-background:new 0 0 100 100;" version="1.1" viewBox="0 0 100 100" x="0px"
     xml:space="preserve"
     xmlns="http://www.w3.org/2000/svg" y="0px">
<style type="text/css">
	.st0 {
    fill: #2B55A4;
  }

  .st1 {
    fill: none;
    stroke: #2B55A4;
    stroke-width: 4;
    stroke-linecap: round;
    stroke-linejoin: round;
    stroke-miterlimit: 10;
  }
</style>
  <g>
	<path class="st0" d="M45.19,4.16H27.23c-0.55,0-1,0.45-1,1v72.68c0,0.55,0.45,1,1,1h13.46c0.22,0,0.43-0.07,0.6-0.2
		c1.77-1.33,2.99-3.04,3.63-5.09c1.9-6.08,0.57-8.65-0.87-9.74c-0.07-0.05-0.14-0.09-0.22-0.13c-2.21-0.9-4.72-1.91-8.59-5.25
		c-4.18-3.6-4.37-10.68-4.14-14.45c1.85,1.95,4.35,3.25,6.95,4.6c2.24,1.16,4.55,2.36,6.68,4.07c3.16,2.53,3.78,5.48,3.74,7.51
		c-0.01,0.43,0.26,0.81,0.66,0.96c0.11,0.04,0.23,0.06,0.34,0.06c0.3,0,0.59-0.13,0.78-0.37c0.78-0.97,3.65-4.18,7.97-4.61
		c1.26-0.13,2.55-0.13,3.91-0.14c3.77-0.02,7.98-0.05,11.96-2.92c-0.69,3.3-3.3,9.25-12.93,12.21c-2.51,0.77-4.77,1.19-6.71,1.25
		c-0.01,0-0.02,0-0.03,0c-0.14,0-0.27,0.01-0.4,0.01c-0.24,0-0.48-0.01-0.71-0.02c-0.02,0-0.03,0-0.05,0
		c-0.06,0-0.12,0.01-0.18,0.02c-0.78,0.14-2.61,0.78-2.61,3.59c0,2.09,0,4.96,1.87,7.38c0.19,0.25,0.49,0.39,0.79,0.39
		c0.07,0,0.14-0.01,0.22-0.02c8.16-1.81,15.57-6.4,20.87-12.93c5.38-6.62,8.34-14.97,8.34-23.51C82.54,20.91,65.79,4.16,45.19,4.16z
		 M63.17,33.41c0.01,3.89-3.17,7.07-7.07,7.07c-3.9,0-7.08-3.17-7.08-7.07s3.17-7.08,7.08-7.08C59.99,26.33,63.17,29.5,63.17,33.41z
		"/>
    <path class="st1" d="M77.22,52.5L74.93,44l-6.71-20.5l-15-2l-3.96,4.4c-4.27-1.76-8.95-2.74-13.85-2.74H17.44v72.68h17.97
		c18.93,0,34.48-14.48,36.18-32.97l1.63-1.36L77.22,52.5z"/>
</g>
</svg>
