<?xml version="1.0" encoding="utf-8"?>
<!-- Generator: Adobe Illustrator 27.0.0, SVG Export Plug-In . SVG Version: 6.00 Build 0)  -->
<svg id="图层_1" style="enable-background:new 0 0 100 100;" version="1.1" viewBox="0 0 100 100" x="0px"
     xml:space="preserve"
     xmlns="http://www.w3.org/2000/svg" y="0px">
<style type="text/css">
	.st0 {
    fill: #FFFFFF;
  }

  .st1 {
    fill: none;
    stroke: #FFFFFF;
    stroke-width: 4;
    stroke-linecap: round;
    stroke-linejoin: round;
    stroke-miterlimit: 10;
  }
</style>
  <g>
	<g>
		<path class="st0" d="M27.22,78.33c-0.28,0-0.5-0.22-0.5-0.5V5.16c0-0.28,0.22-0.5,0.5-0.5h17.97c20.31,0,36.84,16.53,36.84,36.84
			c0,17.12-12.12,32.24-28.81,35.95c-0.04,0.01-0.07,0.01-0.11,0.01c-0.15,0-0.3-0.07-0.4-0.19c-1.76-2.29-1.76-4.94-1.76-7.07
			c0-2.34,1.38-2.95,2.2-3.1c0.03,0,0.11-0.01,0.12-0.01c0.24,0.01,0.48,0.02,0.74,0.02c0.13,0,0.44-0.01,0.45-0.01
			c1.99-0.06,4.29-0.49,6.84-1.27c11.28-3.48,13.17-10.97,13.47-13.88c-4.12,3.55-8.46,3.58-12.66,3.6
			c-1.37,0.01-2.67,0.01-3.95,0.14c-4.51,0.45-7.5,3.79-8.31,4.8c-0.1,0.12-0.24,0.19-0.39,0.19c-0.06,0-0.11-0.01-0.17-0.03
			c-0.2-0.07-0.33-0.27-0.33-0.48c0.04-2.14-0.61-5.26-3.93-7.91c-2.17-1.74-4.51-2.95-6.76-4.12c-2.95-1.53-5.76-2.99-7.59-5.4
			c-0.32,3.3-0.64,11.89,4.21,16.07c3.93,3.39,6.48,4.42,8.73,5.33c0.04,0.02,0.08,0.04,0.11,0.06c1.32,0.99,2.51,3.39,0.7,9.19
			c-0.61,1.95-1.77,3.58-3.45,4.84c-0.09,0.07-0.19,0.1-0.3,0.1H27.22z M56.09,25.83c-4.18,0-7.58,3.4-7.58,7.58s3.4,7.58,7.58,7.58
			s7.58-3.4,7.58-7.58S60.27,25.83,56.09,25.83z"/>
    <path class="st0" d="M45.19,5.16c20.07,0,36.34,16.27,36.34,36.34c0,17.35-12.16,31.85-28.42,35.46
			c-1.65-2.14-1.66-4.67-1.66-6.76c0-1.87,0.95-2.45,1.79-2.61c0.25,0.01,0.5,0.02,0.76,0.02c0.14,0,0.28,0,0.43-0.01
			c0.03,0.01,0.05,0.01,0.05,0.01l-0.02-0.01c1.89-0.05,4.18-0.43,6.98-1.29c14.43-4.44,13.88-15.54,13.88-15.54
			c-5.55,5.54-11.66,3.88-17.21,4.43c-4.72,0.47-7.82,3.94-8.65,4.98c0.04-2.06-0.55-5.46-4.12-8.31
			c-5.55-4.44-12.21-5.55-14.99-10.55c0,0-2.12,12.41,4.21,17.86c3.9,3.36,6.45,4.44,8.87,5.42c1.1,0.83,2.29,2.99,0.52,8.64
			c-0.63,2.01-1.82,3.49-3.27,4.59H27.22V5.16H45.19 M56.09,41.48c4.46,0,8.07-3.62,8.07-8.07c0-4.46-3.62-8.08-8.07-8.08
			s-8.08,3.62-8.08,8.08C48.02,37.86,51.63,41.48,56.09,41.48 M45.19,4.16H27.22c-0.55,0-1,0.45-1,1v72.68c0,0.55,0.45,1,1,1h13.46
			c0.22,0,0.43-0.07,0.6-0.2c1.77-1.33,2.99-3.04,3.63-5.09c1.9-6.08,0.57-8.65-0.87-9.74c-0.07-0.05-0.14-0.09-0.22-0.13
			c-2.21-0.9-4.72-1.91-8.59-5.25c-4.18-3.6-4.37-10.68-4.14-14.45c1.85,1.95,4.35,3.25,6.95,4.6c2.24,1.16,4.55,2.36,6.68,4.07
			c3.16,2.53,3.78,5.48,3.74,7.51c-0.01,0.43,0.26,0.81,0.66,0.96c0.11,0.04,0.23,0.06,0.34,0.06c0.3,0,0.59-0.13,0.78-0.37
			c0.78-0.97,3.65-4.18,7.97-4.61c1.26-0.13,2.55-0.13,3.91-0.14c3.77-0.02,7.98-0.05,11.96-2.92c-0.69,3.3-3.3,9.25-12.93,12.21
			c-2.51,0.77-4.77,1.19-6.71,1.25l0,0l0,0c-0.01,0-0.02,0-0.03,0c-0.14,0-0.27,0.01-0.4,0.01c-0.24,0-0.48-0.01-0.71-0.02
			c-0.02,0-0.03,0-0.05,0c-0.06,0-0.12,0.01-0.18,0.02c-0.78,0.14-2.61,0.78-2.61,3.59c0,2.09,0,4.96,1.87,7.38
			c0.19,0.25,0.49,0.39,0.79,0.39c0.07,0,0.14-0.01,0.22-0.02c8.16-1.81,15.57-6.4,20.87-12.93c5.38-6.62,8.34-14.97,8.34-23.51
			C82.53,20.91,65.78,4.16,45.19,4.16L45.19,4.16z M56.09,40.48c-3.9,0-7.08-3.17-7.08-7.07s3.17-7.08,7.08-7.08
			c3.9,0,7.07,3.17,7.07,7.08C63.17,37.3,59.99,40.48,56.09,40.48L56.09,40.48z"/>
	</g>
    <path class="st1" d="M77.22,52.5L74.93,44l-6.71-20.5l-15-2l-3.96,4.4c-4.27-1.76-8.95-2.74-13.85-2.74H17.44v72.68h17.97
		c18.93,0,34.48-14.48,36.18-32.97l1.63-1.36L77.22,52.5z"/>
</g>
</svg>
